<svg width="37" height="12" viewBox="0 0 37 12" fill="none" xmlns="http://www.w3.org/2000/svg">
<g id="375 / logo/visa/color">
<mask id="mask0_1_295" style="mask-type:luminance" maskUnits="userSpaceOnUse" x="1" y="0" width="35" height="12">
<path id="Shape" fill-rule="evenodd" clip-rule="evenodd" d="M11.2646 0.214849L8.3451 8.05771L7.16117 1.38628C7.06216 0.710704 6.51349 0.213068 5.8696 0.214849H1.09351L1.02625 0.54342C2.00837 0.771991 3.12503 1.12913 3.79772 1.52913C4.21479 1.77199 4.32242 1.97199 4.47041 2.54342L6.70374 11.7434H9.67702L14.2244 0.214849H11.2646ZM15.4216 0.214844L13.0941 11.7434H15.906L18.2335 0.214844H15.4216ZM31.5125 3.32812L32.3601 7.6567H30.0326L31.5125 3.32812ZM31.108 0.214944C30.5838 0.2082 30.1089 0.54245 29.9106 1.0578L25.6996 11.7435H28.646L29.2379 10.0149H32.8435L33.1799 11.7435H35.7765L33.5162 0.214944H31.108ZM18.9871 3.81429C18.9736 5.47143 20.3863 6.4 21.4491 6.95714C22.5389 7.52857 22.9156 7.88572 22.9021 8.38572C22.8887 9.15714 22.0276 9.5 21.2204 9.51429C19.8078 9.54286 18.9871 9.11429 18.3413 8.78572L17.83 11.3143C18.4893 11.6286 19.7001 11.9143 20.9513 11.9286C23.8977 11.9286 25.8351 10.3857 25.8351 7.98572C25.8485 4.94286 21.8796 4.77143 21.9065 3.41429C21.92 3 22.2833 2.55714 23.1039 2.44286C24.0545 2.34593 25.0121 2.52363 25.8754 2.95714L26.3732 0.514286C25.5341 0.180004 24.6459 0.00589591 23.7497 0C20.9648 0 19.0005 1.57143 18.9871 3.81429Z" fill="white"/>
</mask>
<g mask="url(#mask0_1_295)">
<path id="Shape_2" d="M1.02625 0H35.7773V11.9143H1.02625V0Z" fill="#828282"/>
</g>
</g>
</svg>
