<svg width="47" height="12" viewBox="0 0 47 12" fill="none" xmlns="http://www.w3.org/2000/svg">
<g id="375 / logo/mir/color" clip-path="url(#clip0_1_304)">
<g id="Group 191">
<path id="Vector" d="M11.0706 1.575L9.43399 7.0875H9.15399L7.5174 1.575C7.2374 0.642186 6.35875 0 5.35459 0H1.42969V12H5.35942V4.90781H5.63944L7.88914 12H10.6989L12.9437 4.90781H13.2237V12H17.1535V0H13.2286C12.2292 0 11.3506 0.642186 11.0706 1.575ZM32.8289 12H36.7828V8.45156H40.761C42.8416 8.45156 44.6135 7.30781 45.2989 5.7H32.8289V12ZM25.824 1.26562L23.0578 7.09219H22.7777V0H18.848V12H22.1839C23.0626 12 23.8591 11.5031 24.226 10.7344L26.9922 4.9125H27.2724V12H31.202V0H27.8661C26.9874 0 26.1909 0.496875 25.824 1.26562Z" fill="#828282"/>
<path id="Vector_2" d="M41.1512 0C42.2857 0 43.314 0.421875 44.0912 1.11562C44.9602 1.88437 45.5058 2.99064 45.5058 4.22344C45.5058 4.47656 45.4768 4.725 45.4333 4.96875H38.1339C35.6621 4.96875 33.5669 3.39375 32.862 1.21875C32.8524 1.19531 32.8475 1.16719 32.8379 1.13906C32.8186 1.07344 32.8041 1.00312 32.7848 0.9375C32.7124 0.632811 32.6641 0.323436 32.6448 0H41.1512Z" fill="#B4B4B4"/>
</g>
</g>
<defs>
<clipPath id="clip0_1_304">
<rect width="46" height="12" fill="white" transform="translate(0.413574)"/>
</clipPath>
</defs>
</svg>
