<svg width="354" height="44" viewBox="0 0 354 44" fill="none" xmlns="http://www.w3.org/2000/svg">
<path d="M23.5039 24.9087H22.781C22.3794 24.9087 22.0581 24.7456 21.8172 24.5009C21.5762 24.1747 21.3353 23.8484 21.3353 23.5222V8.27025C21.3353 7.86244 21.4959 7.5362 21.7369 7.29151C21.9778 6.96527 22.2991 6.88371 22.781 6.88371H23.5039V6.14966H19.5683H18.2028L12.0183 19.281L5.59279 6.14966H4.06673H0.291748V6.88371H1.01462C1.41621 6.88371 1.73749 7.04683 1.97844 7.29151C2.2194 7.61776 2.38004 7.86244 2.38004 8.27025V23.7669C2.29972 24.0931 2.2194 24.3378 1.97844 24.5009C1.73749 24.8272 1.41621 24.9087 1.01462 24.9087H0.372067V25.6428H6.31566V24.9087H5.59279C5.1912 24.9087 4.86992 24.7456 4.62896 24.5009C4.38801 24.1747 4.14705 23.93 4.14705 23.5222C4.14705 23.5222 4.14705 8.43337 4.14705 8.10713C5.51247 10.9618 11.5364 23.1959 11.5364 23.1959H11.7773C12.9821 20.7491 16.4358 13.6533 19.1667 8.10713V23.4406C19.1667 23.8484 19.006 24.0931 18.7651 24.4194C18.4438 24.664 18.2028 24.8272 17.8012 24.8272H17.0784V25.5612H23.5842V24.9087H23.5039Z" fill="black"/>
<path d="M51.7164 6.14966C53.1621 6.14966 54.5275 6.39434 55.7323 6.88371C56.9371 7.37308 57.9812 8.02557 58.7844 8.92274C59.6679 9.81991 60.3105 10.8802 60.7924 12.1036C61.2743 13.327 61.5153 14.7136 61.5153 16.2632C61.5153 17.8129 61.2743 19.1179 60.7924 20.4229C60.3105 21.6463 59.6679 22.7066 58.7844 23.6038C57.9009 24.5009 56.8568 25.1534 55.7323 25.6428C54.5275 26.1322 53.1621 26.3768 51.7164 26.3768C50.2706 26.3768 48.9052 26.1322 47.7004 25.6428C46.4957 25.1534 45.4515 24.4194 44.6483 23.6038C43.7648 22.7066 43.1223 21.6463 42.6404 20.4229C42.1584 19.1994 41.9175 17.8129 41.9175 16.2632C41.9175 14.7951 42.1584 13.4086 42.6404 12.1036C43.1223 10.8802 43.7648 9.81991 44.6483 8.92274C45.5318 8.02557 46.576 7.37308 47.7004 6.88371C48.9855 6.39434 50.2706 6.14966 51.7164 6.14966ZM51.7967 25.0719C52.9212 25.0719 53.885 24.8272 54.7685 24.4194C55.652 24.0116 56.4552 23.4406 57.0977 22.625C57.7403 21.891 58.2222 20.9122 58.6238 19.8519C58.9451 18.7916 59.1057 17.5682 59.1057 16.1817C59.1057 14.8767 58.9451 13.6533 58.6238 12.593C58.2222 11.5327 57.7403 10.554 57.0977 9.81991C56.4552 9.08586 55.7323 8.43337 54.7685 8.02557C53.885 7.61776 52.8408 7.37308 51.7967 7.37308C50.6722 7.37308 49.7084 7.61776 48.8249 8.02557C47.9414 8.43337 47.1382 9.08586 46.4957 9.81991C45.8531 10.6355 45.2909 11.5327 44.9696 12.593C44.6483 13.6533 44.4877 14.8767 44.4877 16.1817C44.4877 17.4867 44.6483 18.7101 44.9696 19.8519C45.2909 20.9122 45.8531 21.891 46.4957 22.625C47.1382 23.4406 47.8611 24.0116 48.8249 24.4194C49.7084 24.8272 50.6722 25.0719 51.7967 25.0719Z" fill="black"/>
<path d="M97.6794 17.4867L97.2778 22.0541C96.8762 22.625 96.4746 23.1959 95.9927 23.7669C95.5108 24.2562 94.9486 24.7456 94.306 25.0718C93.6635 25.4797 92.9406 25.7243 92.1374 25.969C91.3342 26.2137 90.531 26.2953 89.5672 26.2953C88.1215 26.2953 86.8364 26.0506 85.6316 25.5612C84.4268 25.0718 83.3827 24.3378 82.5795 23.5222C81.696 22.625 81.0534 21.5647 80.5715 20.3413C80.0896 19.1179 79.8486 17.7313 79.8486 16.1817C79.8486 14.7136 80.0896 13.327 80.5715 12.1036C81.0534 10.8802 81.696 9.81991 82.5795 8.92274C83.463 8.02556 84.5071 7.37308 85.7119 6.88371C86.9167 6.39434 88.2821 6.14966 89.8082 6.14966C91.1736 6.14966 92.3784 6.31278 93.5028 6.72059C94.6273 7.12839 95.5108 7.5362 96.3943 8.10713L96.9565 12.3483H96.314C95.9124 10.7171 95.1092 9.49367 93.9847 8.67805C92.78 7.86244 91.4145 7.45464 89.8885 7.45464C88.6837 7.45464 87.7199 7.69932 86.756 8.10713C85.7922 8.51493 85.0694 9.08586 84.4268 9.90147C83.7843 10.6355 83.3023 11.6143 82.9811 12.6746C82.5795 13.7348 82.4991 14.9583 82.4991 16.2632C82.4991 17.5682 82.6598 18.7916 83.0614 19.8519C83.463 20.9122 83.9449 21.891 84.5874 22.625C85.23 23.3591 86.0332 24.0116 86.9167 24.4194C87.8002 24.8272 88.8443 25.0718 89.8885 25.1534C90.772 25.1534 91.6555 24.9903 92.539 24.7456C93.3422 24.5009 94.0651 24.0931 94.7879 23.5222C95.4305 22.9513 95.9927 22.1356 96.4746 21.2385C96.8762 20.2597 97.1975 19.1179 97.3581 17.7313H97.6794V17.4867Z" fill="black"/>
<path d="M161.654 6.14966C163.1 6.14966 164.466 6.39434 165.67 6.88371C166.875 7.37308 167.919 8.02557 168.803 8.92274C169.686 9.81991 170.329 10.8802 170.811 12.1036C171.293 13.327 171.534 14.7136 171.534 16.2632C171.534 17.8129 171.293 19.1179 170.811 20.4229C170.329 21.6463 169.606 22.7066 168.803 23.6038C167.919 24.5009 166.875 25.1534 165.67 25.6428C164.466 26.1321 163.18 26.3768 161.654 26.3768C160.209 26.3768 158.843 26.1321 157.719 25.6428C156.514 25.1534 155.47 24.4194 154.586 23.6038C153.703 22.7066 153.06 21.6463 152.578 20.4229C152.096 19.1994 151.855 17.8129 151.855 16.2632C151.855 14.7951 152.096 13.4086 152.578 12.1036C153.06 10.8802 153.783 9.81991 154.586 8.92274C155.47 8.02557 156.514 7.37308 157.719 6.88371C158.924 6.39434 160.209 6.14966 161.654 6.14966ZM161.654 25.0719C162.779 25.0719 163.743 24.8272 164.626 24.4194C165.51 24.0116 166.313 23.4406 166.955 22.625C167.598 21.891 168.08 20.9122 168.401 19.8519C168.803 18.7916 168.963 17.5682 168.963 16.1817C168.963 14.8767 168.803 13.6533 168.401 12.593C168 11.5327 167.518 10.554 166.955 9.81991C166.313 9.08586 165.51 8.43337 164.626 8.02557C163.743 7.61776 162.699 7.37308 161.654 7.37308C160.53 7.37308 159.566 7.61776 158.683 8.02557C157.799 8.43337 156.996 9.08586 156.353 9.81991C155.711 10.6355 155.229 11.5327 154.827 12.593C154.506 13.6533 154.345 14.8767 154.345 16.1817C154.345 17.4867 154.506 18.7101 154.827 19.8519C155.229 20.9122 155.711 21.891 156.353 22.625C156.996 23.4406 157.799 24.0116 158.683 24.4194C159.566 24.8272 160.61 25.0719 161.654 25.0719Z" fill="black"/>
<path d="M195.57 6.14966C197.497 6.23122 198.943 6.63903 199.987 7.5362C201.031 8.35181 201.513 9.57523 201.513 10.9618C201.513 12.0221 201.272 12.8377 200.791 13.4902C200.309 14.1427 199.746 14.7136 199.104 15.0398C200.389 15.3661 201.353 16.0186 202.076 16.9973C202.799 17.8945 203.2 19.0363 203.2 20.3413C203.2 21.9725 202.638 23.2775 201.513 24.2562C200.389 25.235 198.783 25.6428 196.694 25.6428H189.867V24.9087H190.429C190.831 24.9087 191.152 24.7456 191.474 24.5009C191.715 24.1747 191.875 23.8484 191.955 23.4406V8.35181C191.955 7.944 191.795 7.61776 191.554 7.29151C191.233 6.96527 190.911 6.88371 190.51 6.88371H189.948V6.14966H195.57ZM196.132 14.7951C196.614 14.7136 197.096 14.5505 197.578 14.3058C197.979 14.0611 198.381 13.6533 198.702 13.1639C199.024 12.6746 199.184 12.0221 199.184 11.2065C199.184 10.0646 198.863 9.16742 198.22 8.51493C197.578 7.86244 196.694 7.5362 195.49 7.5362H194.285V14.9583C195.088 14.9583 195.65 14.8767 196.132 14.7951ZM196.694 24.2562C197.979 24.1747 198.943 23.8484 199.746 23.1144C200.469 22.3803 200.871 21.4016 200.871 20.1782C200.871 19.1994 200.71 18.4654 200.309 17.8129C199.907 17.242 199.425 16.7526 198.863 16.4264C198.301 16.1001 197.658 15.937 196.855 15.7739C196.212 15.6923 195.329 15.6108 194.285 15.6108V24.1747L196.694 24.2562Z" fill="black"/>
<path d="M239.364 17.4867L238.962 22.0541C238.561 22.625 238.159 23.1959 237.677 23.7669C237.195 24.2562 236.633 24.7456 235.991 25.0718C235.348 25.4797 234.625 25.7243 233.902 25.969C233.099 26.2137 232.296 26.2953 231.332 26.2953C229.886 26.2953 228.601 26.0506 227.396 25.5612C226.192 25.0718 225.148 24.3378 224.264 23.5222C223.381 22.625 222.738 21.5647 222.256 20.3413C221.774 19.1179 221.533 17.7313 221.533 16.1817C221.533 14.7136 221.774 13.327 222.256 12.1036C222.738 10.8802 223.381 9.81991 224.264 8.92274C225.148 8.02556 226.192 7.37308 227.396 6.88371C228.601 6.39434 229.967 6.14966 231.493 6.14966C232.858 6.14966 234.063 6.31278 235.187 6.72059C236.312 7.12839 237.195 7.5362 238.079 8.10713L238.641 12.3483H237.999C237.597 10.7171 236.794 9.49367 235.669 8.67805C234.465 7.86244 233.099 7.45464 231.573 7.45464C230.449 7.45464 229.404 7.69932 228.521 8.10713C227.557 8.51493 226.834 9.08586 226.192 9.90147C225.549 10.6355 225.067 11.6143 224.666 12.6746C224.344 13.7348 224.184 14.9583 224.184 16.2632C224.184 17.5682 224.344 18.7916 224.746 19.8519C225.148 20.9122 225.629 21.891 226.272 22.625C226.915 23.3591 227.718 24.0116 228.601 24.4194C229.485 24.8272 230.529 25.0718 231.573 25.1534C232.457 25.1534 233.34 24.9903 234.224 24.7456C235.027 24.5009 235.75 24.0931 236.473 23.5222C237.115 22.9513 237.677 22.1356 238.079 21.2385C238.561 20.2597 238.802 19.1179 239.043 17.7313H239.364V17.4867Z" fill="black"/>
<path d="M299.403 6.55746V7.29151H298.68C298.279 7.29151 297.958 7.45464 297.717 7.69932C297.395 7.944 297.315 8.27025 297.235 8.67805V21.5647L311.451 6.14966H311.853V23.8484C311.853 24.2562 312.013 24.5825 312.254 24.9087C312.576 25.235 312.817 25.3165 313.218 25.3165H313.941V26.0506H307.997V25.3165H308.72C309.122 25.3165 309.443 25.1534 309.684 24.9087C310.005 24.664 310.086 24.3378 310.166 23.93V10.9618L295.95 26.3768H295.628V8.67805C295.628 8.27025 295.468 8.02557 295.227 7.69932C294.905 7.37308 294.664 7.29151 294.263 7.29151H293.54V6.55746H299.403Z" fill="black"/>
<path d="M132.96 24.9087C132.8 24.9087 132.639 24.9087 132.478 24.9087H132.398C130.872 24.7456 129.667 23.6038 129.506 23.4406L122.679 15.6923L128.864 8.10713C129.185 7.69932 129.587 7.45464 130.069 7.20995C130.551 6.96527 131.033 6.88371 131.595 6.88371H131.916V6.14966H125.812V6.88371H126.294C126.535 6.88371 126.695 6.96527 126.776 7.04683C126.856 7.12839 126.936 7.29151 126.936 7.45464C126.936 7.61776 126.856 7.69932 126.776 7.86244L120.27 15.7739V8.35181C120.27 7.944 120.511 7.61776 120.752 7.29151C121.073 6.96527 121.394 6.88371 121.796 6.88371H122.358V6.14966H116.013V6.88371H116.575C116.977 6.88371 117.298 7.04683 117.619 7.29151C117.86 7.61776 118.021 7.944 118.101 8.35181V23.3591C118.021 23.7669 117.86 24.0931 117.619 24.4194C117.298 24.7456 116.977 24.8272 116.575 24.8272H116.013V25.5612H122.358V24.8272H121.796C121.394 24.8272 121.073 24.664 120.752 24.4194C120.511 24.0931 120.35 23.7669 120.27 23.3591V16.1817L126.936 23.93C127.177 24.0931 127.258 24.5009 127.097 24.664C126.936 24.8272 126.695 24.9087 126.454 24.9087H125.812V25.5612H131.113H132.398H133.522V24.9087H132.96Z" fill="black"/>
<path d="M274.645 24.9087C274.484 24.9087 274.323 24.9087 274.163 24.9087H274.082C272.396 24.664 271.191 23.4406 271.191 23.4406L264.364 15.6923L270.548 8.10713C270.87 7.69932 271.271 7.45464 271.753 7.20995C272.235 6.96527 272.717 6.88371 273.279 6.88371H273.6V6.14966H267.496V6.88371H267.978C268.219 6.88371 268.38 6.96527 268.46 7.04683C268.54 7.12839 268.621 7.29151 268.621 7.45464C268.621 7.61776 268.54 7.69932 268.46 7.86244L261.954 15.7739V8.35181C261.954 7.944 262.115 7.61776 262.436 7.29151C262.677 6.96527 263.079 6.88371 263.48 6.88371H264.042V6.14966H257.697V6.88371H258.259C258.661 6.88371 258.982 7.04683 259.304 7.29151C259.545 7.61776 259.705 7.944 259.786 8.35181V23.3591C259.705 23.7669 259.545 24.0931 259.304 24.4194C258.982 24.7456 258.661 24.8272 258.259 24.8272H257.697V25.5612H264.042V24.8272H263.48C263.079 24.8272 262.677 24.664 262.436 24.4194C262.115 24.0931 262.034 23.7669 261.954 23.3591V16.1817L268.621 23.93C268.862 24.0931 268.942 24.5009 268.781 24.664C268.621 24.8272 268.38 24.9087 268.139 24.9087H267.496V25.5612H272.797H274.082H275.207V24.9087H274.645Z" fill="black"/>
<path d="M338.299 6.08969V6.82374H337.576C337.174 6.82374 336.853 6.98686 336.612 7.23155C336.371 7.47623 336.21 7.80247 336.13 8.21028V21.0969L350.346 5.68188H350.668V23.3807C350.668 23.7885 350.828 24.1147 351.069 24.441C351.391 24.7672 351.712 24.8488 352.033 24.8488H352.756V25.5828H346.812V24.8488H347.535C347.937 24.8488 348.258 24.6856 348.499 24.441C348.74 24.1963 348.901 23.87 348.901 23.4622V10.494L334.684 25.9091H334.363V8.21028C334.363 7.80247 334.202 7.55779 333.961 7.23155C333.72 6.9053 333.399 6.82374 332.998 6.82374H332.275V6.08969H338.299Z" fill="black"/>
<path d="M347.294 0.460205H338.78V1.92831H347.294V0.460205Z" fill="black"/>
<path d="M1.93182 41.4412C2.23053 41.5504 2.50627 41.5791 2.75902 41.5274C3.01178 41.4699 3.23868 41.2775 3.43974 40.9501L3.7327 40.4848L3.81887 40.39L6.03335 36.1678H6.8864L4.20662 41.131C4.00557 41.5101 3.77004 41.7974 3.50005 41.9927C3.23581 42.1822 2.94859 42.2856 2.63839 42.3029C2.33393 42.3259 2.02373 42.2684 1.70779 42.1305L1.93182 41.4412ZM3.79302 41.1569L1.14771 36.1678H2.06969L4.26694 40.4675L3.79302 41.1569Z" fill="black"/>
<path d="M20.6107 36.1678H21.4723V42.1995H20.6107V36.1678ZM17.1468 42.1995H16.2851V36.1678H17.1468V42.1995ZM20.6882 39.5111H17.0606V38.7614H20.6882V39.5111Z" fill="black"/>
<path d="M31.8581 42.1995V36.1678H32.7112V40.8208L36.2785 36.1678H37.0712V42.1995H36.2268V37.5551L32.6508 42.1995H31.8581Z" fill="black"/>
<path d="M47.4564 42.1995V36.1678H50.05C50.7048 36.1678 51.219 36.2999 51.5924 36.5642C51.9658 36.8284 52.1524 37.2133 52.1524 37.7188C52.1524 38.2128 51.9744 38.592 51.6182 38.8562C51.2621 39.1147 50.7939 39.244 50.2137 39.244L50.3688 38.9855C51.0409 38.9855 51.555 39.1205 51.9112 39.3904C52.2731 39.6547 52.454 40.0424 52.454 40.5537C52.454 41.0707 52.2645 41.4757 51.8853 41.7686C51.5119 42.0559 50.9547 42.1995 50.2137 42.1995H47.4564ZM48.3094 41.5188H50.1965C50.656 41.5188 51.0007 41.4355 51.2305 41.2689C51.466 41.0965 51.5837 40.8352 51.5837 40.4848C51.5837 40.1343 51.466 39.8787 51.2305 39.7179C51.0007 39.557 50.656 39.4766 50.1965 39.4766H48.3094V41.5188ZM48.3094 38.8217H49.9897C50.409 38.8217 50.7278 38.7384 50.9461 38.5719C51.1701 38.4053 51.2822 38.1611 51.2822 37.8394C51.2822 37.512 51.1701 37.265 50.9461 37.0984C50.7278 36.9318 50.409 36.8485 49.9897 36.8485H48.3094V38.8217Z" fill="black"/>
<path d="M63.1824 38.77H66.2844V39.5025H63.1824V38.77ZM63.2599 41.4498H66.7755V42.1995H62.3983V36.1678H66.6549V36.9175H63.2599V41.4498Z" fill="black"/>
<path d="M76.6333 42.1995V36.1678H78.9857C79.5142 36.1678 79.9651 36.2511 80.3385 36.4177C80.7119 36.5843 80.9991 36.8255 81.2002 37.1415C81.4012 37.4574 81.5018 37.8337 81.5018 38.2703C81.5018 38.7069 81.4012 39.0831 81.2002 39.3991C80.9991 39.7093 80.7119 39.9505 80.3385 40.1229C79.9651 40.2894 79.5142 40.3727 78.9857 40.3727H77.1073L77.495 39.9678V42.1995H76.6333ZM77.495 40.0539L77.1073 39.6231H78.9598C79.5113 39.6231 79.9278 39.5053 80.2093 39.2698C80.4965 39.0343 80.6401 38.7011 80.6401 38.2703C80.6401 37.8394 80.4965 37.5063 80.2093 37.2707C79.9278 37.0352 79.5113 36.9175 78.9598 36.9175H77.1073L77.495 36.4866V40.0539Z" fill="black"/>
<path d="M91.205 42.1995V36.1678H91.9116L94.6172 40.726H94.2381L96.9092 36.1678H97.6158L97.6244 42.1995H96.7972L96.7886 37.4689H96.9868L94.6086 41.4671H94.2122L91.8168 37.4689H92.0322V42.1995H91.205Z" fill="black"/>
<path d="M107.171 42.1995L109.902 36.1678H110.755L113.495 42.1995H112.591L110.152 36.6503H110.497L108.058 42.1995H107.171ZM108.334 40.6916L108.567 40.0022H111.962L112.211 40.6916H108.334Z" fill="black"/>
<path d="M123.041 42.1995V36.1678H126.996L126.987 36.9175H123.679L123.885 36.702L123.894 42.1995H123.041Z" fill="black"/>
<path d="M150.043 42.2684C149.583 42.2684 149.158 42.1937 148.768 42.0444C148.383 41.8893 148.047 41.6739 147.759 41.3981C147.478 41.1166 147.257 40.7892 147.096 40.4158C146.935 40.0424 146.855 39.6317 146.855 39.1836C146.855 38.7356 146.935 38.3248 147.096 37.9515C147.257 37.5781 147.481 37.2535 147.768 36.9778C148.055 36.6963 148.391 36.4809 148.776 36.3315C149.167 36.1764 149.592 36.0989 150.051 36.0989C150.517 36.0989 150.945 36.1793 151.335 36.3401C151.732 36.4952 152.068 36.7279 152.344 37.0381L151.783 37.5809C151.554 37.3397 151.295 37.1616 151.008 37.0467C150.721 36.9261 150.413 36.8658 150.086 36.8658C149.747 36.8658 149.431 36.9232 149.138 37.0381C148.851 37.153 148.601 37.3138 148.388 37.5206C148.176 37.7274 148.009 37.9744 147.889 38.2617C147.774 38.5431 147.716 38.8505 147.716 39.1836C147.716 39.5168 147.774 39.827 147.889 40.1142C148.009 40.3957 148.176 40.6399 148.388 40.8467C148.601 41.0535 148.851 41.2143 149.138 41.3292C149.431 41.4441 149.747 41.5015 150.086 41.5015C150.413 41.5015 150.721 41.4441 151.008 41.3292C151.295 41.2086 151.554 41.0247 151.783 40.7777L152.344 41.3206C152.068 41.6308 151.732 41.8663 151.335 42.0271C150.945 42.188 150.514 42.2684 150.043 42.2684Z" fill="black"/>
<path d="M161.056 42.1995L163.788 36.1678H164.641L167.381 42.1995H166.476L164.038 36.6503H164.382L161.944 42.1995H161.056ZM162.22 40.6916L162.452 40.0022H165.847L166.097 40.6916H162.22Z" fill="black"/>
<path d="M181.252 36.1678H182.114V42.1995H181.252V36.1678ZM177.788 42.1995H176.927V36.1678H177.788V42.1995ZM181.33 39.5111H177.702V38.7614H181.33V39.5111Z" fill="black"/>
<path d="M196.558 42.1995L194.37 39.2267L195.068 38.7959L197.541 42.1995H196.558ZM192.5 42.1995V36.1678H193.344V42.1995H192.5ZM193.086 39.5455V38.7873H195.042V39.5455H193.086ZM195.145 39.2784L194.352 39.1578L196.515 36.1678H197.437L195.145 39.2784Z" fill="black"/>
<path d="M208.102 42.1995V36.6934L208.317 36.9175H206.042V36.1678H211.014V36.9175H208.739L208.946 36.6934V42.1995H208.102Z" fill="black"/>
<path d="M219.832 40.1918V39.4766H222.15V40.1918H219.832Z" fill="black"/>
<path d="M232.083 42.1995V36.1678H237.279V42.1995H236.435V36.6934L236.641 36.9175H232.721L232.936 36.6934V42.1995H232.083Z" fill="black"/>
<path d="M248.449 38.77H251.551V39.5025H248.449V38.77ZM248.526 41.4498H252.042V42.1995H247.665V36.1678H251.921V36.9175H248.526V41.4498Z" fill="black"/>
<path d="M263.132 42.1995V36.6934L263.347 36.9175H261.072V36.1678H266.044V36.9175H263.769L263.976 36.6934V42.1995H263.132Z" fill="black"/>
<path d="M276.38 38.77H279.482V39.5025H276.38V38.77ZM276.458 41.4498H279.973V42.1995H275.596V36.1678H279.853V36.9175H276.458V41.4498Z" fill="black"/>
<path d="M289.831 42.1995V36.1678H292.184C292.712 36.1678 293.163 36.2511 293.536 36.4177C293.91 36.5843 294.197 36.8255 294.398 37.1415C294.599 37.4574 294.7 37.8337 294.7 38.2703C294.7 38.7069 294.599 39.0831 294.398 39.3991C294.197 39.7093 293.91 39.9505 293.536 40.1229C293.163 40.2894 292.712 40.3727 292.184 40.3727H290.305L290.693 39.9678V42.1995H289.831ZM290.693 40.0539L290.305 39.6231H292.158C292.709 39.6231 293.126 39.5053 293.407 39.2698C293.694 39.0343 293.838 38.7011 293.838 38.2703C293.838 37.8394 293.694 37.5063 293.407 37.2707C293.126 37.0352 292.709 36.9175 292.158 36.9175H290.305L290.693 36.4866V40.0539Z" fill="black"/>
<path d="M304.403 42.1995V36.1678H308.952V36.9002H305.256V38.6236H307.134C307.852 38.6236 308.398 38.7729 308.771 39.0716C309.145 39.3703 309.332 39.804 309.332 40.3727C309.332 40.9587 309.128 41.4096 308.72 41.7256C308.318 42.0415 307.74 42.1995 306.988 42.1995H304.403ZM305.256 41.5188H306.953C307.453 41.5188 307.829 41.424 308.082 41.2344C308.341 41.0448 308.47 40.7634 308.47 40.39C308.47 39.6662 307.964 39.3043 306.953 39.3043H305.256V41.5188Z" fill="black"/>
<path d="M318.999 41.4412C319.298 41.5504 319.574 41.5791 319.827 41.5274C320.079 41.4699 320.306 41.2775 320.507 40.9501L320.8 40.4848L320.886 40.39L323.101 36.1678H323.954L321.274 41.131C321.073 41.5101 320.838 41.7974 320.568 41.9927C320.303 42.1822 320.016 42.2856 319.706 42.3029C319.401 42.3259 319.091 42.2684 318.775 42.1305L318.999 41.4412ZM320.861 41.1569L318.215 36.1678H319.137L321.334 40.4675L320.861 41.1569Z" fill="black"/>
<path d="M333.353 42.1995V36.1678H335.705C336.233 36.1678 336.684 36.2511 337.058 36.4177C337.431 36.5843 337.718 36.8255 337.919 37.1415C338.12 37.4574 338.221 37.8337 338.221 38.2703C338.221 38.7069 338.12 39.0831 337.919 39.3991C337.718 39.7093 337.431 39.9505 337.058 40.1229C336.684 40.2894 336.233 40.3727 335.705 40.3727H333.827L334.214 39.9678V42.1995H333.353ZM334.214 40.0539L333.827 39.6231H335.679C336.231 39.6231 336.647 39.5053 336.929 39.2698C337.216 39.0343 337.359 38.7011 337.359 38.2703C337.359 37.8394 337.216 37.5063 336.929 37.2707C336.647 37.0352 336.231 36.9175 335.679 36.9175H333.827L334.214 36.4866V40.0539Z" fill="black"/>
<path d="M347.924 42.1995V36.1678H351.879L351.871 36.9175H348.562L348.769 36.702L348.777 42.1995H347.924Z" fill="black"/>
</svg>
