<svg width="83" height="26" viewBox="0 0 83 26" fill="none" xmlns="http://www.w3.org/2000/svg">
<g id="Frame 245233649">
<path id="Union" fill-rule="evenodd" clip-rule="evenodd" d="M27.6736 24.9927L28.157 24.9404C30.4228 24.5745 32.1552 22.5688 32.1552 20.1494C32.1552 17.4705 30.0312 15.2988 27.411 15.2988C24.7908 15.2988 22.6667 17.4705 22.6667 20.1494C22.6667 22.8283 24.7908 25 27.411 25C27.4991 25 27.5866 24.9975 27.6736 24.9927ZM34.1233 24.9404H32.1551C33.1854 23.7766 33.8457 22.2642 33.9466 20.5969H33.96V1L41.5227 6.11754V17.375C41.5227 21.5533 38.2099 24.9404 34.1233 24.9404ZM57.0801 24.9927L56.5966 24.9404C54.3309 24.5745 52.5984 22.5688 52.5984 20.1494C52.5984 17.4705 54.7225 15.2988 57.3427 15.2988C59.9629 15.2988 62.0869 17.4705 62.0869 20.1494C62.0869 22.8283 59.9629 25 57.3427 25C57.2546 25 57.167 24.9975 57.0801 24.9927ZM50.807 20.5969C50.9078 22.2642 51.5682 23.7766 52.5984 24.9404H50.6303C46.5437 24.9404 43.2308 21.5533 43.2308 17.375V6.11754L50.7935 1V20.5969H50.807Z" stroke="black"/>
</g>
</svg>
