<svg width="24" height="24" viewBox="0 0 24 24" fill="none" xmlns="http://www.w3.org/2000/svg">
<g id="Frame 33919">
<g id="Union">
<mask id="path-1-inside-1_1_57" fill="white">
<path fill-rule="evenodd" clip-rule="evenodd" d="M21.0366 4.29043C23.6797 6.48266 24.1141 10.4676 22.0091 13.212L21.4667 13.9192C19.2333 16.831 16.545 19.3371 13.5124 21.3342L12.5 22.0009L12.4932 21.994L11.2429 21.2229C8.00917 19.2283 5.15327 16.6434 2.81441 13.594L2.33231 12.9655C0.284669 10.2958 0.70722 6.41947 3.27834 4.28698C6.06505 1.97566 10.1348 2.69369 12.0488 5.7177C14.0435 2.6274 18.201 1.93863 21.0366 4.29043Z"/>
</mask>
<path d="M22.0091 13.212L21.2156 12.6034V12.6034L22.0091 13.212ZM21.0366 4.29043L20.3982 5.06013V5.06013L21.0366 4.29043ZM21.4667 13.9192L22.2601 14.5278L21.4667 13.9192ZM13.5124 21.3342L12.9624 20.499L13.5124 21.3342ZM12.5 22.0009L11.7904 22.7054L12.3668 23.286L13.05 22.8361L12.5 22.0009ZM12.4932 21.994L13.2029 21.2895L13.1192 21.2052L13.0182 21.1429L12.4932 21.994ZM11.2429 21.2229L10.7179 22.074L11.2429 21.2229ZM2.81441 13.594L2.02093 14.2026H2.02093L2.81441 13.594ZM2.33231 12.9655L3.12578 12.3569V12.3569L2.33231 12.9655ZM3.27834 4.28698L2.63994 3.51727H2.63994L3.27834 4.28698ZM12.0488 5.7177L11.2038 6.25251L12.0405 7.57446L12.889 6.26002L12.0488 5.7177ZM22.8026 13.8206C25.2308 10.6548 24.7367 6.06015 21.675 3.52072L20.3982 5.06013C22.6227 6.90517 22.9974 10.2803 21.2156 12.6034L22.8026 13.8206ZM22.2601 14.5278L22.8026 13.8206L21.2156 12.6034L20.6732 13.3106L22.2601 14.5278ZM14.0624 22.1694C17.1892 20.1102 19.9596 17.5272 22.2601 14.5278L20.6732 13.3106C18.5071 16.1348 15.9007 18.564 12.9624 20.499L14.0624 22.1694ZM13.05 22.8361L14.0624 22.1694L12.9624 20.499L11.95 21.1657L13.05 22.8361ZM11.7836 22.6986L11.7904 22.7054L13.2097 21.2964L13.2029 21.2895L11.7836 22.6986ZM13.0182 21.1429L11.7679 20.3717L10.7179 22.074L11.9683 22.8452L13.0182 21.1429ZM11.7679 20.3717C8.63885 18.4418 5.87361 15.9394 3.60789 12.9854L2.02093 14.2026C4.43294 17.3473 7.37949 20.0149 10.7179 22.074L11.7679 20.3717ZM3.60789 12.9854L3.12578 12.3569L1.53883 13.5741L2.02093 14.2026L3.60789 12.9854ZM3.12578 12.3569C1.40133 10.1085 1.76423 6.84198 3.91673 5.05668L2.63994 3.51727C-0.349787 5.99696 -0.831995 10.483 1.53883 13.5741L3.12578 12.3569ZM3.91673 5.05668C6.22574 3.14158 9.60285 3.72303 11.2038 6.25251L12.8938 5.18289C10.6668 1.66435 5.90436 0.809747 2.63994 3.51727L3.91673 5.05668ZM21.675 3.52072C18.3672 0.777278 13.5208 1.59332 11.2086 5.17538L12.889 6.26002C14.5663 3.66148 18.0348 3.09998 20.3982 5.06013L21.675 3.52072Z" fill="black" mask="url(#path-1-inside-1_1_57)"/>
</g>
</g>
</svg>
