<svg width="20" height="12" viewBox="0 0 20 12" fill="none" xmlns="http://www.w3.org/2000/svg">
<g id="Group 166">
<path id="Vector" d="M12.3309 1.28284H7.08154V10.7167H12.3309V1.28284Z" fill="#353535"/>
<path id="&#60;Path&#62;" d="M7.41492 6.00136C7.41395 5.09268 7.61976 4.19569 8.01675 3.37831C8.41375 2.56094 8.99152 1.84461 9.70632 1.28358C8.82128 0.588025 7.7584 0.155504 6.63917 0.0354451C5.51994 -0.0846141 4.38951 0.112632 3.37708 0.604641C2.36465 1.09665 1.51106 1.86357 0.913876 2.81775C0.31669 3.77193 0 4.87488 0 6.00053C0 7.12618 0.31669 8.22912 0.913876 9.1833C1.51106 10.1375 2.36465 10.9044 3.37708 11.3964C4.38951 11.8884 5.51994 12.0857 6.63917 11.9656C7.7584 11.8455 8.82128 11.413 9.70632 10.7175C8.99174 10.1566 8.4141 9.44056 8.01712 8.62349C7.62013 7.80642 7.41421 6.90976 7.41492 6.00136Z" fill="#828282"/>
<path id="Vector_2" d="M19.4136 6.00083C19.4136 7.12657 19.0968 8.22958 18.4995 9.1838C17.9022 10.138 17.0485 10.9049 16.036 11.3969C15.0234 11.8888 13.8929 12.0859 12.7736 11.9657C11.6543 11.8455 10.5914 11.4127 9.70642 10.717C10.4207 10.1556 10.9982 9.43933 11.3953 8.62222C11.7924 7.80511 11.9987 6.90849 11.9987 6C11.9987 5.09151 11.7924 4.19489 11.3953 3.37778C10.9982 2.56067 10.4207 1.84441 9.70642 1.28305C10.5914 0.587281 11.6543 0.15455 12.7736 0.034318C13.8929 -0.0859137 15.0234 0.111206 16.036 0.603144C17.0485 1.09508 17.9022 1.86199 18.4995 2.8162C19.0968 3.77042 19.4136 4.87343 19.4136 5.99917V6.00083Z" fill="#828282"/>
<path id="Vector_3" d="M18.8404 9.71707V9.52376H18.9188V9.48376H18.7205V9.52376H18.8054V9.71707H18.8404ZM19.2254 9.71707V9.48376H19.1654L19.0954 9.65041L19.0254 9.48376H18.9721V9.71707H19.0154V9.54209L19.0804 9.69374H19.1254L19.1904 9.54209V9.71874L19.2254 9.71707Z" fill="#F79E1B"/>
</g>
</svg>
