<svg width="21" height="22" viewBox="0 0 21 22" fill="none" xmlns="http://www.w3.org/2000/svg">
<g filter="url(#filter0_d_1_972)">
<path fill-rule="evenodd" clip-rule="evenodd" d="M6.28557 14.309C6.00157 13.95 5.65657 13.216 5.04257 12.325C4.69457 11.821 3.83157 10.872 3.57457 10.39C3.35157 9.96403 3.37557 9.77303 3.42857 9.42003C3.52257 8.79203 4.16657 8.30303 4.85357 8.36903C5.37257 8.41803 5.81257 8.76103 6.20857 9.08503C6.44757 9.28003 6.74157 9.65903 6.91857 9.87303C7.08157 10.069 7.12157 10.15 7.29557 10.382C7.52557 10.689 7.59757 10.841 7.50957 10.503C7.43857 10.007 7.32257 9.16003 7.15457 8.41103C7.02657 7.84303 6.99557 7.75403 6.87357 7.31803C6.74457 6.85403 6.67857 6.52903 6.55757 6.03703C6.47357 5.68903 6.32257 4.97803 6.28157 4.57803C6.22457 4.03103 6.19457 3.13903 6.54557 2.72903C6.82057 2.40803 7.45157 2.31103 7.84257 2.50903C8.35457 2.76803 8.64557 3.51203 8.77857 3.80903C9.01757 4.34303 9.16557 4.96003 9.29457 5.77003C9.45857 6.80103 9.76057 8.23203 9.77057 8.53303C9.79457 8.16403 9.70257 7.38703 9.76657 7.03303C9.82457 6.71203 10.0946 6.33903 10.4326 6.23803C10.7186 6.15303 11.0536 6.12203 11.3486 6.18303C11.6616 6.24703 11.9916 6.47103 12.1146 6.68203C12.4766 7.30603 12.4836 8.58103 12.4986 8.51303C12.5846 8.13703 12.5696 7.28403 12.7826 6.92903C12.9226 6.69503 13.2796 6.48403 13.4696 6.45003C13.7636 6.39803 14.1246 6.38203 14.4336 6.44203C14.6826 6.49103 15.0196 6.78703 15.1106 6.92903C15.3286 7.27303 15.4526 8.24603 15.4896 8.58703C15.5046 8.72803 15.5636 8.19503 15.7826 7.85103C16.1886 7.21203 17.6256 7.08803 17.6806 8.49003C17.7056 9.14403 17.7006 9.11403 17.7006 9.55403C17.7006 10.071 17.6886 10.382 17.6606 10.756C17.6296 11.156 17.5436 12.06 17.4186 12.498C17.3326 12.799 17.0476 13.476 16.7666 13.882C16.7666 13.882 15.6926 15.132 15.5756 15.695C15.4576 16.257 15.4966 16.261 15.4736 16.66C15.4506 17.058 15.5946 17.582 15.5946 17.582C15.5946 17.582 14.7926 17.686 14.3606 17.617C13.9696 17.554 13.4856 16.776 13.3606 16.538C13.1886 16.21 12.8216 16.273 12.6786 16.515C12.4536 16.898 11.9696 17.585 11.6276 17.628C10.9596 17.712 9.57357 17.659 8.48857 17.648C8.48857 17.648 8.67357 16.637 8.26157 16.29C7.95657 16.031 7.43157 15.506 7.11757 15.23L6.28557 14.309Z" fill="white"/>
<path fill-rule="evenodd" clip-rule="evenodd" d="M6.28557 14.309C6.00157 13.95 5.65657 13.216 5.04257 12.325C4.69457 11.821 3.83157 10.872 3.57457 10.39C3.35157 9.96403 3.37557 9.77303 3.42857 9.42003C3.52257 8.79203 4.16657 8.30303 4.85357 8.36903C5.37257 8.41803 5.81257 8.76103 6.20857 9.08503C6.44757 9.28003 6.74157 9.65903 6.91857 9.87303C7.08157 10.069 7.12157 10.15 7.29557 10.382C7.52557 10.689 7.59757 10.841 7.50957 10.503C7.43857 10.007 7.32257 9.16003 7.15457 8.41103C7.02657 7.84303 6.99557 7.75403 6.87357 7.31803C6.74457 6.85403 6.67857 6.52903 6.55757 6.03703C6.47357 5.68903 6.32257 4.97803 6.28157 4.57803C6.22457 4.03103 6.19457 3.13903 6.54557 2.72903C6.82057 2.40803 7.45157 2.31103 7.84257 2.50903C8.35457 2.76803 8.64557 3.51203 8.77857 3.80903C9.01757 4.34303 9.16557 4.96003 9.29457 5.77003C9.45857 6.80103 9.76057 8.23203 9.77057 8.53303C9.79457 8.16403 9.70257 7.38703 9.76657 7.03303C9.82457 6.71203 10.0946 6.33903 10.4326 6.23803C10.7186 6.15303 11.0536 6.12203 11.3486 6.18303C11.6616 6.24703 11.9916 6.47103 12.1146 6.68203C12.4766 7.30603 12.4836 8.58103 12.4986 8.51303C12.5846 8.13703 12.5696 7.28403 12.7826 6.92903C12.9226 6.69503 13.2796 6.48403 13.4696 6.45003C13.7636 6.39803 14.1246 6.38203 14.4336 6.44203C14.6826 6.49103 15.0196 6.78703 15.1106 6.92903C15.3286 7.27303 15.4526 8.24603 15.4896 8.58703C15.5046 8.72803 15.5636 8.19503 15.7826 7.85103C16.1886 7.21203 17.6256 7.08803 17.6806 8.49003C17.7056 9.14403 17.7006 9.11403 17.7006 9.55403C17.7006 10.071 17.6886 10.382 17.6606 10.756C17.6296 11.156 17.5436 12.06 17.4186 12.498C17.3326 12.799 17.0476 13.476 16.7666 13.882C16.7666 13.882 15.6926 15.132 15.5756 15.695C15.4576 16.257 15.4966 16.261 15.4736 16.66C15.4506 17.058 15.5946 17.582 15.5946 17.582C15.5946 17.582 14.7926 17.686 14.3606 17.617C13.9696 17.554 13.4856 16.776 13.3606 16.538C13.1886 16.21 12.8216 16.273 12.6786 16.515C12.4536 16.898 11.9696 17.585 11.6276 17.628C10.9596 17.712 9.57357 17.659 8.48857 17.648C8.48857 17.648 8.67357 16.637 8.26157 16.29C7.95657 16.031 7.43157 15.506 7.11757 15.23L6.28557 14.309Z" stroke="#121619" stroke-width="0.75" stroke-linecap="round" stroke-linejoin="round"/>
<path d="M14.5205 14.6635V11.2045" stroke="#121619" stroke-width="0.75" stroke-linecap="round"/>
<path d="M12.5049 14.6753L12.4889 11.2023" stroke="#121619" stroke-width="0.75" stroke-linecap="round"/>
<path d="M10.5088 11.2339L10.5298 14.6599" stroke="#121619" stroke-width="0.75" stroke-linecap="round"/>
</g>
<defs>
<filter id="filter0_d_1_972" x="0.4" y="0.4" width="21.2" height="21.2497" filterUnits="userSpaceOnUse" color-interpolation-filters="sRGB">
<feFlood flood-opacity="0" result="BackgroundImageFix"/>
<feColorMatrix in="SourceAlpha" type="matrix" values="0 0 0 0 0 0 0 0 0 0 0 0 0 0 0 0 0 0 127 0" result="hardAlpha"/>
<feOffset dy="1"/>
<feGaussianBlur stdDeviation="1.3"/>
<feColorMatrix type="matrix" values="0 0 0 0 0 0 0 0 0 0 0 0 0 0 0 0 0 0 0.32 0"/>
<feBlend mode="normal" in2="BackgroundImageFix" result="effect1_dropShadow_1_972"/>
<feBlend mode="normal" in="SourceGraphic" in2="effect1_dropShadow_1_972" result="shape"/>
</filter>
</defs>
</svg>
