<svg width="32" height="32" viewBox="0 0 32 32" fill="none" xmlns="http://www.w3.org/2000/svg">
<g id="insta">
<circle id="Ellipse 66" cx="15.9993" cy="15.9997" r="15.4997" stroke="black"/>
<path id="Vector" d="M18.3709 11.5334L10.1382 16.5559L6.72372 15.5204L6.72326 15.5203C6.68001 15.5072 6.64319 15.494 6.61208 15.4814C6.68286 15.4374 6.78282 15.387 6.91921 15.3353C6.91956 15.3352 6.91991 15.3351 6.92027 15.3349L21.1094 10.0385C21.3242 9.9611 21.4128 10.02 21.4306 10.0367C21.449 10.054 21.546 10.1699 21.476 10.5309L21.4659 10.577L19.052 21.6051C18.9766 21.9248 18.8734 21.9828 18.8563 21.9903C18.8377 21.9985 18.732 22.0309 18.4716 21.895L14.8194 19.2872L14.4869 19.0498L14.188 19.3283L12.5788 20.8277L12.7625 18.3089L19.4236 12.4774C19.4241 12.477 19.4246 12.4766 19.4252 12.4761C19.5303 12.3851 19.6958 12.2087 19.7055 11.9516C19.7183 11.6123 19.4696 11.4254 19.2897 11.3634C19.1219 11.3055 18.9484 11.3165 18.8097 11.3471C18.6635 11.3793 18.5139 11.442 18.3709 11.5334ZM19.0378 12.3216C19.0377 12.3217 19.0363 12.3219 19.0337 12.322C19.0365 12.3215 19.0378 12.3215 19.0378 12.3216ZM6.48299 15.5858C6.48294 15.5858 6.48333 15.5852 6.48429 15.5838C6.48351 15.5852 6.48304 15.5858 6.48299 15.5858Z" fill="black" stroke="black"/>
</g>
</svg>
