<svg width="32" height="32" viewBox="0 0 32 32" fill="none" xmlns="http://www.w3.org/2000/svg">
<g id="vk">
<circle id="Ellipse 66" cx="15.9997" cy="15.9997" r="15.4997" stroke="black"/>
<g id="Group 248">
<path id="Vector" d="M14.7517 18.6197V11.5001H16.6525V15.3494V15.9049L17.2049 15.8467C18.2498 15.7365 19.2622 15.1111 20.0775 14.2701C20.814 13.5105 21.4267 12.5383 21.7896 11.5001H23.6982C23.0821 13.7054 21.3736 15.3458 20.1327 16.0484L19.282 16.5301L20.1704 16.9379C21.4158 17.5097 23.3732 18.9499 24.313 21.5001H22.159C21.3519 19.4163 19.5617 17.8015 17.201 17.5715L16.6525 17.518V18.0691V21.4992C13.7704 21.466 11.5531 20.4821 10.0259 18.7464C8.54315 17.0612 7.66451 14.6143 7.51732 11.5001H9.59754C9.8356 16.3496 12.1103 18.6102 14.1328 19.1053L14.7517 19.2569V18.6197Z" fill="black" stroke="black"/>
</g>
</g>
</svg>
